<svg width="120" height="104" viewBox="0 0 120 104" fill="none" xmlns="http://www.w3.org/2000/svg">
<path d="M116.32 6.87561V6.73818H86.8173C78.5665 2.31472 69.3504 0 59.989 0C50.6277 0 41.4115 2.31472 33.1607 6.73818H4.90355C4.7112 6.73818 4.51885 6.73818 4.3265 6.73818H4.27154C3.61793 6.80941 2.98599 7.01445 2.41504 7.34054C1.84409 7.66663 1.34636 8.10679 0.952835 8.6336C0.559314 9.16043 0.278425 9.76262 0.127656 10.4027C-0.0231136 11.0429 -0.040536 11.7071 0.0764733 12.3542C3.56625 31.5935 13.0463 83.8146 13.0463 83.8146C13.3529 85.5114 14.1098 87.0946 15.2378 88.3985C16.3657 89.7024 17.8233 90.679 19.4581 91.2263L55.3177 103.026C59.3693 104.367 63.7515 104.322 67.7747 102.898L100.639 91.3088C102.234 90.7434 103.652 89.7687 104.752 88.4824C105.852 87.196 106.593 85.6432 106.904 83.9796L119.92 12.4092C120.143 11.2011 119.895 9.9532 119.224 8.92337C118.555 7.89353 117.515 7.16046 116.32 6.87561Z" fill="#FFB619"/>
<path d="M62.2295 38.2884V54.1673C62.2295 54.4228 62.1275 54.6678 61.9461 54.8485C61.7647 55.0291 61.5186 55.1305 61.262 55.1305H57.0483C56.7917 55.1305 56.5457 55.0291 56.3642 54.8485C56.1828 54.6678 56.0808 54.4228 56.0808 54.1673V38.2073C56.0811 38.1769 56.0884 38.1468 56.1022 38.1196C56.116 38.0924 56.1359 38.0687 56.1604 38.0504C56.1849 38.0322 56.2133 38.0198 56.2434 38.0141C56.2736 38.0086 56.3046 38.0101 56.3341 38.0183L58.8929 38.8465C59.0618 38.8916 59.2395 38.8916 59.4083 38.8465L61.9854 38.0994C62.0142 38.0926 62.0442 38.0924 62.0732 38.0987C62.1022 38.1051 62.1293 38.1177 62.1527 38.1358C62.1761 38.154 62.1952 38.1771 62.2084 38.2034C62.2217 38.2298 62.2289 38.2588 62.2295 38.2884Z" fill="white"/>
<path d="M84.464 39.3684V35.1015C84.464 33.5712 83.8532 32.1036 82.7663 31.0215C81.6794 29.9394 80.2051 29.3315 78.668 29.3315H68.0796C67.5664 29.3315 67.0742 29.5344 66.7114 29.8957C66.3485 30.2569 66.1447 30.7469 66.1447 31.2578V53.1769C66.1447 53.6878 66.3485 54.1778 66.7114 54.5391C67.0742 54.9004 67.5664 55.1033 68.0796 55.1033H78.668C80.2051 55.1033 81.6794 54.4954 82.7663 53.4133C83.8532 52.3312 84.464 50.8636 84.464 49.3332V45.1384C84.464 44.372 84.1581 43.6371 83.6138 43.0952C83.0694 42.5533 82.3312 42.2489 81.5614 42.2489C82.3296 42.2489 83.0665 41.9457 83.6106 41.4058C84.1547 40.8658 84.4615 40.1331 84.464 39.3684ZM78.478 47.1098C78.478 47.6207 78.2742 48.1107 77.9113 48.472C77.5485 48.8333 77.0563 49.0362 76.543 49.0362H72.3204V44.4363H76.543C77.0563 44.4363 77.5485 44.6392 77.9113 45.0005C78.2742 45.3618 78.478 45.8518 78.478 46.3627V47.1098ZM72.3204 35.4706H76.543C76.7967 35.4694 77.0482 35.5182 77.2829 35.614C77.5175 35.7098 77.731 35.8509 77.9108 36.029C78.0906 36.2072 78.2332 36.4189 78.3306 36.6522C78.428 36.8853 78.478 37.1354 78.478 37.388V38.1351C78.478 38.646 78.2742 39.136 77.9113 39.4973C77.5485 39.8586 77.0563 40.0615 76.543 40.0615H72.3204V35.4706Z" fill="white"/>
<path d="M52.1655 38.1983V35.1017C52.1655 33.5713 51.5549 32.1037 50.468 31.0216C49.3809 29.9395 47.9067 29.3316 46.3695 29.3316H39.6422C38.105 29.3316 36.6308 29.9395 35.5439 31.0216C34.4568 32.1037 33.8462 33.5713 33.8462 35.1017V49.3603C33.8462 50.8907 34.4568 52.3583 35.5439 53.4404C36.6308 54.5225 38.105 55.1305 39.6422 55.1305H46.3695C47.9067 55.1305 49.3809 54.5225 50.468 53.4404C51.5549 52.3583 52.1655 50.8907 52.1655 49.3603V46.2458C52.1655 45.9903 52.0636 45.7453 51.8822 45.5647C51.7007 45.384 51.4546 45.2826 51.198 45.2826H47.1743C47.0477 45.2826 46.9223 45.3075 46.8054 45.3561C46.6885 45.4046 46.5825 45.4757 46.4933 45.5652C46.4042 45.6548 46.3338 45.761 46.2862 45.8778C46.2385 45.9947 46.2146 46.1197 46.2159 46.2458V46.9749C46.2159 47.2279 46.1658 47.4784 46.0685 47.7121C45.9713 47.9458 45.8287 48.1582 45.649 48.337C45.4694 48.5159 45.2561 48.6578 45.0213 48.7546C44.7866 48.8514 44.5349 48.9013 44.2808 48.9013H41.9208C41.4092 48.8988 40.9194 48.6949 40.5584 48.3339C40.1975 47.9728 39.9949 47.4843 39.9949 46.9749V37.3611C39.9949 36.8526 40.1978 36.3649 40.559 36.0053C40.9201 35.6458 41.41 35.4437 41.9208 35.4437H44.2808C44.5345 35.4426 44.7859 35.4913 45.0206 35.5871C45.2554 35.6829 45.4687 35.8239 45.6485 36.0021C45.8283 36.1802 45.971 36.3921 46.0683 36.6252C46.1657 36.8585 46.2159 37.1085 46.2159 37.3611V38.1983C46.2146 38.3243 46.2385 38.4494 46.2862 38.5661C46.3338 38.683 46.4042 38.7892 46.4933 38.8788C46.5825 38.9683 46.6885 39.0394 46.8054 39.0879C46.9223 39.1364 47.0477 39.1614 47.1743 39.1614H51.198C51.4546 39.1614 51.7007 39.06 51.8822 38.8793C52.0636 38.6987 52.1655 38.4537 52.1655 38.1983Z" fill="white"/>
<path d="M63.5314 29.8808H61.2347C60.5956 29.538 59.881 29.3586 59.155 29.3586C58.4291 29.3586 57.7145 29.538 57.0754 29.8808H54.8239C54.7219 29.8963 54.6304 29.9515 54.5694 30.0342C54.5084 30.1169 54.4828 30.2203 54.4983 30.3218L55.5111 35.8398C55.5318 35.9725 55.5894 36.0967 55.6773 36.1985C55.7651 36.3002 55.8798 36.3756 56.0084 36.4159L58.7934 37.3161C59.1068 37.4238 59.4474 37.4238 59.7609 37.3161L62.3107 36.4159C62.4349 36.3724 62.5455 36.297 62.6312 36.1975C62.7169 36.0979 62.7748 35.9778 62.799 35.8489L63.8117 30.3128C63.8223 30.2661 63.8235 30.2177 63.815 30.1706C63.8066 30.1234 63.7889 30.0784 63.7627 30.0382C63.7367 29.9979 63.7027 29.9633 63.663 29.9362C63.6233 29.9092 63.5785 29.8904 63.5314 29.8808ZM61.723 33.4814C61.7067 33.5594 61.6695 33.6315 61.6154 33.6901C61.5614 33.7488 61.4923 33.7918 61.4156 33.8145L59.4263 34.4086C59.2587 34.4622 59.0785 34.4622 58.9109 34.4086L56.8945 33.8325C56.8172 33.8082 56.7478 33.7635 56.6937 33.7034C56.6396 33.6432 56.6028 33.5697 56.5871 33.4904L56.3791 32.3471C56.3768 32.332 56.3784 32.3165 56.3839 32.302C56.3893 32.2877 56.3983 32.2749 56.4101 32.265C56.4219 32.2551 56.4361 32.2483 56.4512 32.2454C56.4663 32.2424 56.482 32.2434 56.4967 32.2482L58.8838 32.9863C59.052 33.036 59.231 33.036 59.3992 32.9863L61.7773 32.2752C61.7919 32.2704 61.8076 32.2695 61.8227 32.2724C61.8379 32.2753 61.852 32.2821 61.8638 32.292C61.8756 32.3019 61.8847 32.3147 61.89 32.3291C61.8955 32.3435 61.8972 32.359 61.8948 32.3742L61.723 33.4814Z" fill="white"/>
<path d="M36.1539 62.4314H37.8086V67.1482L42.2845 62.4314H44.3371L40.4037 66.4641L44.5178 71.8111H42.4925L39.2734 67.5893L37.8086 69.0926V71.7931H36.1539V62.4314Z" fill="white"/>
<path d="M49.0025 62.3586H50.5397L54.681 71.8104H52.9358L51.9773 69.551H47.5196L46.5521 71.8104H44.8522L49.0025 62.3586ZM51.3716 68.0837L49.744 64.33L48.1254 68.0837H51.3716Z" fill="white"/>
<path d="M55.4767 70.4422L56.5165 69.308C57.3107 70.0854 58.3777 70.5244 59.4914 70.5322C60.5132 70.5322 61.1642 70.0461 61.1642 69.353C61.1642 68.6958 60.7844 68.3088 59.0302 67.9128C57.0229 67.4446 55.8926 66.8325 55.8926 65.1132C55.8926 63.5019 57.2399 62.4127 59.1116 62.4127C60.3585 62.3868 61.5739 62.805 62.5385 63.5919L61.6343 64.8341C60.9304 64.2048 60.0371 63.825 59.0936 63.754C58.126 63.754 57.5564 64.2401 57.5564 64.8702C57.5564 65.5903 57.9904 65.9143 59.8079 66.3464C61.7881 66.8506 62.8279 67.5257 62.8279 69.0919C62.8279 70.8923 61.4354 71.8915 59.4552 71.8915C57.9915 71.9337 56.5674 71.4149 55.4767 70.4422Z" fill="white"/>
<path d="M64.0035 70.4425L64.9982 69.3082C65.7934 70.084 66.8596 70.5228 67.973 70.5325C68.9948 70.5325 69.6458 70.0464 69.6458 69.3532C69.6458 68.6961 69.266 68.3091 67.5209 67.913C65.5136 67.4449 64.3743 66.8327 64.3743 65.1134C64.3743 63.5021 65.7215 62.4129 67.6023 62.4129C68.8464 62.3876 70.0586 62.8059 71.0202 63.5922L70.116 64.8344C69.39 64.2466 68.4921 63.9086 67.5571 63.8712C66.5805 63.8712 66.0199 64.3573 66.0199 64.9874C66.0199 65.7076 66.4449 66.0316 68.2714 66.4637C70.2426 66.9678 71.2824 67.6429 71.2824 69.2092C71.2824 71.0096 69.899 72.0087 67.9188 72.0087C66.4602 72.0057 65.0586 71.445 64.0035 70.4425Z" fill="white"/>
<path d="M76.3911 62.3586H77.9282L82.0786 71.8104H80.3243L79.3659 69.551H74.9081L73.9406 71.8104H72.2407L76.3911 62.3586ZM78.7601 68.0837L77.1777 64.33L75.5592 68.0837H78.7601Z" fill="white"/>
</svg>
